<?xml version="1.0" encoding="UTF-8" standalone="no"?>
<svg
   svg:contrastcolor="0085AD"
   svg:template="Contrast"
   svg:presentation="2.5"
   svg:layouttype="undefined"
   svg:specialfontid="undefined"
   svg:id1="009"
   svg:id2="192"
   svg:companyname="CDBUS"
   svg:companytagline="New Generation Universal Fieldbus"
   version="1.1"
   viewBox="-2 -2 375.04098 100.972"
   id="svg7383"
   sodipodi:docname="cdbus_logo2.svg"
   width="375.04099"
   height="100.972"
   inkscape:version="1.2.2 (b0a8486541, 2022-12-01)"
   xmlns:inkscape="http://www.inkscape.org/namespaces/inkscape"
   xmlns:sodipodi="http://sodipodi.sourceforge.net/DTD/sodipodi-0.dtd"
   xmlns="http://www.w3.org/2000/svg"
   xmlns:svg="http://www.w3.org/2000/svg">
  <defs
     id="defs7387" />
  <sodipodi:namedview
     id="namedview7385"
     pagecolor="#ffffff"
     bordercolor="#666666"
     borderopacity="1.0"
     inkscape:showpageshadow="2"
     inkscape:pageopacity="0"
     inkscape:pagecheckerboard="0"
     inkscape:deskcolor="#d1d1d1"
     showgrid="false"
     inkscape:zoom="2.4470146"
     inkscape:cx="303.02231"
     inkscape:cy="94.196415"
     inkscape:window-width="1414"
     inkscape:window-height="831"
     inkscape:window-x="626"
     inkscape:window-y="95"
     inkscape:window-maximized="0"
     inkscape:current-layer="svg7383" />
  <g
     data-paper-data="{&quot;isPrimaryText&quot;:true}"
     id="g7377"
     transform="translate(-89.47959,-171.86786)"
     style="font-family:none;mix-blend-mode:normal;fill:#101820;fill-rule:nonzero;stroke:none;stroke-width:1;stroke-linecap:butt;stroke-linejoin:miter;stroke-miterlimit:10;stroke-dasharray:none;stroke-dashoffset:0">
    <path
       d="m 165.66357,251.80954 c 1.05053,0 1.93945,0.36365 2.66674,1.09094 0.72729,0.72729 1.09094,1.61621 1.09094,2.66674 0,1.01013 -0.30304,1.83844 -0.90912,2.48492 -4.52538,3.51525 -9.3336,6.19209 -14.42465,8.03053 -5.09105,1.83844 -10.46494,2.75765 -16.12167,2.75765 -6.58605,0 -12.76804,-1.23236 -18.54598,-3.69707 -5.77794,-2.46472 -11.03062,-5.95976 -15.75802,-10.48515 -4.52538,-4.72741 -8.02043,-9.98008 -10.48515,-15.75802 -2.46472,-5.77794 -3.69707,-11.95993 -3.69707,-18.54598 0,-13.37412 4.72741,-24.78858 14.18222,-34.24339 9.49522,-9.49522 20.92989,-14.24283 34.304,-14.24283 11.51548,0 21.75819,3.67687 30.72814,11.03062 0.72729,0.72729 1.09094,1.61621 1.09094,2.66674 0,1.01013 -0.36365,1.87884 -1.09094,2.60613 -0.72729,0.72729 -1.596,1.09094 -2.60613,1.09094 -1.05053,0 -2.08087,-0.48486 -3.091,-1.45459 -6.9901,-5.65673 -15.33377,-8.48509 -25.03101,-8.48509 -11.31345,0 -20.99049,4.02032 -29.03113,12.06095 -8.00023,8.00023 -12.00034,17.65707 -12.00034,28.97052 0,11.35386 4.00011,21.0309 12.00034,29.03113 8.00023,8.00023 17.67727,12.00034 29.03113,12.00034 9.77805,0 18.34395,-3.01019 25.6977,-9.03056 0.52527,-0.36365 1.19195,-0.54547 2.00006,-0.54547 z"
       data-paper-data="{&quot;glyphName&quot;:&quot;C&quot;,&quot;glyphIndex&quot;:0,&quot;firstGlyphOfWord&quot;:true,&quot;word&quot;:1}"
       id="path7365" />
    <path
       d="m 202.81614,261.38557 c 11.23264,0 20.88948,-4.00011 28.97052,-12.00034 8.04063,-8.04063 12.06095,-17.71767 12.06095,-29.03113 0,-11.27305 -4.02032,-20.92989 -12.06095,-28.97052 -8.12144,-8.04063 -17.77828,-12.06095 -28.97052,-12.06095 h -16.18228 v 82.06293 z m 0,-89.51769 c 13.37412,0 24.78858,4.74761 34.24339,14.24283 9.49522,9.45481 14.24283,20.86928 14.24283,34.24339 0,13.37412 -4.74761,24.80878 -14.24283,34.304 -9.45481,9.45481 -20.86928,14.18222 -34.24339,14.18222 h -19.93996 c -1.01013,0 -1.87884,-0.36365 -2.60613,-1.09094 -0.72729,-0.72729 -1.09094,-1.61621 -1.09094,-2.66674 v -89.45708 c 0,-1.05053 0.36365,-1.93945 1.09094,-2.66674 0.72729,-0.72729 1.596,-1.09094 2.60613,-1.09094 z"
       data-paper-data="{&quot;glyphName&quot;:&quot;D&quot;,&quot;glyphIndex&quot;:1,&quot;word&quot;:1}"
       id="path7367" />
    <path
       d="m 329.547,175.62556 c 0,-1.05053 0.36365,-1.93945 1.09094,-2.66674 0.72729,-0.72729 1.61621,-1.09094 2.66674,-1.09094 1.05053,0 1.92935,0.36365 2.63644,1.09094 0.70709,0.72729 1.06064,1.61621 1.06064,2.66674 v 59.63805 c 0,7.23253 2.56573,13.39432 7.69719,18.48537 5.09105,5.09105 11.23264,7.63658 18.42476,7.63658 7.23253,0 13.39432,-2.54553 18.48537,-7.63658 5.09105,-5.09105 7.63658,-11.25284 7.63658,-18.48537 v -59.63805 c 0,-1.05053 0.36365,-1.93945 1.09094,-2.66674 0.72729,-0.72729 1.61621,-1.09094 2.66674,-1.09094 1.01013,0 1.87884,0.36365 2.60613,1.09094 0.72729,0.72729 1.09094,1.61621 1.09094,2.66674 v 59.63805 c 0,9.29319 -3.27282,17.21261 -9.81846,23.75825 -6.54564,6.54564 -14.46506,9.81846 -23.75825,9.81846 -9.29319,0 -17.21261,-3.27282 -23.75825,-9.81846 -3.27282,-3.27282 -5.72743,-6.87898 -7.36384,-10.81849 -1.63641,-3.93951 -2.45461,-8.25276 -2.45461,-12.93976 z"
       data-paper-data="{&quot;glyphName&quot;:&quot;U&quot;,&quot;glyphIndex&quot;:3,&quot;word&quot;:1}"
       id="path7369" />
    <path
       d="m 407.85225,255.80965 c -0.52527,-0.68689 -0.7879,-1.45459 -0.7879,-2.3031 0,-1.05053 0.35355,-1.93945 1.06064,-2.66674 0.70709,-0.72729 1.5859,-1.09094 2.63644,-1.09094 1.33337,0 2.40411,0.56567 3.21221,1.69702 0.52527,0.7677 1.13135,1.5758 1.81823,2.42431 1.81823,2.10107 4.02032,3.84859 6.60625,5.24257 2.58593,1.39398 5.81835,2.15158 9.69724,2.27279 5.05065,0 9.55583,-1.67682 13.51553,-5.03045 2.14147,-1.85864 3.9193,-4.09102 5.33348,-6.69716 1.41418,-2.60613 2.12127,-5.80825 2.12127,-9.60633 0,-5.09105 -1.67682,-9.57603 -5.03045,-13.45493 -3.59606,-3.9193 -8.38408,-6.38402 -14.36404,-7.39415 -7.35374,-1.37378 -12.72763,-4.14153 -16.12167,-8.30327 -1.77783,-2.18188 -3.1516,-4.54558 -4.12133,-7.09111 -0.96972,-2.54553 -1.45459,-5.21227 -1.45459,-8.00023 0.0808,-7.55577 2.84857,-13.63675 8.30327,-18.24294 4.40417,-3.79809 9.53562,-5.69713 15.39438,-5.69713 6.78807,0 12.76804,2.80816 17.9399,8.42448 0.88891,1.05053 1.65661,2.12127 2.3031,3.21221 0.36365,0.60608 0.54547,1.29297 0.54547,2.06066 0,1.01013 -0.36365,1.87884 -1.09094,2.60613 -0.72729,0.72729 -1.596,1.09094 -2.60613,1.09094 -1.17175,0 -2.00006,-0.32324 -2.48492,-0.96972 -0.64648,-0.88891 -1.43438,-1.89904 -2.3637,-3.03039 -3.03039,-3.55566 -6.68706,-5.4749 -10.97001,-5.75774 -4.40417,-0.28284 -8.34367,1.01013 -11.81852,3.8789 -3.47485,2.90917 -5.35369,6.52544 -5.63652,10.84879 -0.16162,2.22229 0.0606,4.32335 0.66669,6.30321 0.60608,1.97985 1.63641,3.81829 3.091,5.51531 2.66674,2.94958 7.07091,4.99004 13.2125,6.12139 7.43455,1.41418 13.2125,4.60619 17.33382,9.57603 2.14147,2.62634 3.79809,5.4749 4.96984,8.5457 1.17175,3.07079 1.75763,6.2426 1.75763,9.51542 -0.0808,5.57592 -1.02023,10.03059 -2.81826,13.36401 -1.79803,3.33343 -4.21224,6.2729 -7.24263,8.81843 -5.41429,4.56579 -11.51548,6.84868 -18.30355,6.84868 -8.52549,0 -15.87924,-3.37383 -22.06123,-10.1215 -0.68689,-0.7677 -1.43438,-1.73742 -2.24249,-2.90917 z"
       data-paper-data="{&quot;glyphName&quot;:&quot;S&quot;,&quot;glyphIndex&quot;:4,&quot;lastGlyphOfWord&quot;:true,&quot;word&quot;:1}"
       id="path7371" />
    <g
       data-paper-data="{&quot;fillRule&quot;:&quot;evenodd&quot;,&quot;fillRuleOriginal&quot;:&quot;evenodd&quot;,&quot;isIcon&quot;:true,&quot;iconStyle&quot;:&quot;icon-in-text&quot;,&quot;selectedEffects&quot;:{&quot;container&quot;:&quot;&quot;,&quot;transformation&quot;:&quot;&quot;,&quot;pattern&quot;:&quot;&quot;},&quot;bounds&quot;:{&quot;x&quot;:261.606,&quot;y&quot;:171.86799999999997,&quot;width&quot;:57.21300000000008,&quot;height&quot;:96.97199999999995},&quot;iconType&quot;:&quot;icon&quot;,&quot;rawIconId&quot;:&quot;8736&quot;,&quot;isDetailed&quot;:false,&quot;suitableAsStandaloneIcon&quot;:true}"
       id="g7375">
      <path
         d="m 285.243,171.868 c 6.545,0 12.121,2.303 16.727,6.909 4.607,4.606 6.91,10.182 6.91,16.728 0,6.546 -2.707,12.526 -8.122,17.94 4.041,1.939 7.293,4.121 9.758,6.545 5.536,5.617 8.303,12.364 8.303,20.243 0,7.92 -2.788,14.688 -8.363,20.304 -5.617,5.536 -12.364,8.303 -20.243,8.303 h -24.85 c -1.05,0 -1.939,-0.363 -2.666,-1.091 -0.728,-0.727 -1.091,-1.616 -1.091,-2.666 v -89.457 c 0,-1.051 0.363,-1.94 1.091,-2.667 0.727,-0.727 1.616,-1.091 2.666,-1.091 z m 6.49173,27.2972 c 0.54356,0.14659 1.11542,0.22497 1.70614,0.22497 3.60751,0 6.5314,-2.92389 6.5314,-6.5314 0,-3.60751 -2.92389,-6.5314 -6.5314,-6.5314 -3.60751,0 -6.53212,2.92389 -6.53212,6.5314 0,1.7417 0.68072,3.32448 1.79251,4.49505 l 0.003,-0.001 -15.80887,22.65595 -0.0203,-0.005 c -0.61395,-0.19086 -1.27652,-0.29319 -1.95216,-0.29319 -3.6075,0 -6.55244,2.92389 -6.55244,6.5314 0,3.60751 2.8818,6.5314 6.48858,6.5314 2.31429,0 4.31217,-1.20396 5.44718,-3.01968 l 27.29469,9.83918 0.0152,0.001 c -0.0102,0.14442 -0.0152,0.28956 -0.0152,0.43688 0,3.60751 2.92389,6.5314 6.5314,6.5314 3.60751,0 6.5314,-2.92389 6.5314,-6.5314 0,-3.60751 -2.92389,-6.5314 -6.5314,-6.5314 -2.19527,0 -4.13728,1.08276 -5.32164,2.74391 l 0.002,0.002 -27.50805,-10.00392 c 0,-1.61761 -0.28274,-3.0982 -1.73249,-4.23953 l 15.99633,-22.84036 0.0435,-0.0479 0.12264,0.0515 z"
         data-paper-data="{&quot;isPathIcon&quot;:true}"
         id="path7373" />
    </g>
  </g>
</svg>
